<svg xmlns="http://www.w3.org/2000/svg" xmlns:xlink="http://www.w3.org/1999/xlink" width="60" zoomAndPan="magnify" viewBox="0 0 45 44.999999" height="60" preserveAspectRatio="xMidYMid meet" version="1.0"><path fill="#ffffff" d="M 14.558594 10.328125 L 11.8125 5.355469 C 11.40625 4.625 10.652344 4.171875 9.84375 4.171875 L 3.183594 4.171875 L 10.40625 17.820312 L 12.65625 21.871094 L 2.148438 40.828125 L 9.144531 40.828125 C 9.957031 40.828125 10.710938 40.375 11.113281 39.644531 C 20.578125 22.535156 20.441406 22.105469 30.351562 4.230469 L 22.050781 4.230469 L 16.808594 14.390625 L 14.558594 10.339844 Z M 14.558594 10.328125 " fill-opacity="1" fill-rule="evenodd"/><path fill="#ffffff" d="M 30.464844 34.71875 L 33.007812 39.554688 C 33.402344 40.308594 34.167969 40.78125 35 40.78125 L 42.007812 40.78125 L 34.628906 27.226562 L 32.390625 23.1875 C 32.390625 23.1875 32.390625 23.164062 32.390625 23.152344 L 42.839844 4.273438 C 42.839844 4.273438 42.839844 4.21875 42.804688 4.21875 L 35.875 4.21875 C 35.066406 4.21875 34.3125 4.667969 33.90625 5.398438 C 24.457031 22.488281 24.582031 22.9375 14.703125 40.757812 C 14.691406 40.78125 14.703125 40.816406 14.726562 40.816406 C 15.402344 40.816406 21.679688 40.816406 22.804688 40.816406 C 22.90625 40.816406 23.007812 40.757812 23.0625 40.65625 L 28.191406 30.710938 C 28.191406 30.710938 28.238281 30.691406 28.25 30.710938 L 30.464844 34.707031 Z M 30.464844 34.71875 " fill-opacity="1" fill-rule="evenodd"/></svg>